<svg xmlns="http://www.w3.org/2000/svg" width="60" height="41.767" viewBox="0 0 60 41.767">
    <path data-name="Guns &amp; Backpacks" d="M15.588 41.767A2.388 2.388 0 0 1 13.2 39.38V3.027h.012a1.655 1.655 0 0 0 .041.2 1.568 1.568 0 0 1 .724-1.76L16.178.206a1.564 1.564 0 0 1 2.128.571l3.168 5.687a1.641 1.641 0 0 1 .366-.041h2.469a1.651 1.651 0 0 1 .513.082h.084a4.041 4.041 0 0 1 3.964-3.289h2.407A4.042 4.042 0 0 1 35.243 6.5h.9a1.644 1.644 0 0 1 .512-.082H38.7L41.838.777a1.57 1.57 0 0 1 2.133-.571L46.16 1.47a1.56 1.56 0 0 1 .569 2.13 1.45 1.45 0 0 0 .2-.574h.016V39.38a2.389 2.389 0 0 1-2.388 2.386zm-.906-2.386a.907.907 0 0 0 .906.906H44.56a.907.907 0 0 0 .907-.906V34.03H14.682zm30.786-6.994v-20.2a4.2 4.2 0 0 0-4.2-4.2h-.493v24.399zm-8.808 0h2.469V8.07H36.66zm-1.939 0-4.3-4.3-4.3 4.3zm-12.882 0h2.469V8.07h-2.469zm-1.644 0V7.988H18.88a4.2 4.2 0 0 0-4.2 4.2v20.2zm14.818-2.033V23.5l-3.426 3.425zm-9.058-.119 3.306-3.308-3.306-3.305zm4.468-4.471 4.3-4.3-4.3-4.3-4.3 4.3zm4.59-6.336V12.58L31.588 16zm-9.058-.119L29.26 16l-3.3-3.3zm4.468-4.469 4.59-4.587V8.07h-9.057v2.3zm14.97-6.555V5.918L44.478 7.5a5.7 5.7 0 0 1 .915.785zm-30.638 0a5.855 5.855 0 0 1 .913-.783l-.913-1.584zm0-5.475s-.009.013 0 .016l2.3 3.979a5.632 5.632 0 0 1 1.827-.3h.835l-2.756-4.954c0-.008-.007-.008-.012 0zM41.268 6.5a5.65 5.65 0 0 1 1.828.3l2.3-3.979v-.016L43.2 1.548a.011.011 0 0 0-.017 0L40.429 6.5zm-14.635-.074h6.888a2.4 2.4 0 0 0-2.244-1.566H28.87a2.384 2.384 0 0 0-2.237 1.566zM13.415 3.6a1.333 1.333 0 0 1-.072-.141c.022.049.046.096.072.141zm-.078-.152a.583.583 0 0 1-.023-.059.583.583 0 0 0 .023.06zm-.037-.086-.017-.045c.008.016.017.031.017.045zm-.026-.071-.015-.05zM4.05 40.008a14.8 14.8 0 0 1 0-20.347l.3-.312 1.029 1.066-.279.285a13.287 13.287 0 0 0 0 18.26l.273.287-1.028 1.068zm50.415-.8.28-.279a13.3 13.3 0 0 0 .307-18.261l-.267-.291 1.046-1.049.29.316a14.809 14.809 0 0 1-.349 20.347l-.3.3zm-47.094-1.8a11.031 11.031 0 0 1 0-15.17l.3-.308.906.943-.277.297a9.7 9.7 0 0 0 0 13.33l.269.283-.906.943zm43.938-.726.278-.279a9.7 9.7 0 0 0 .226-13.328l-.269-.291.926-.927.291.316a11.043 11.043 0 0 1-.261 15.174l-.3.3zM9.688 34.436a6.7 6.7 0 0 1 0-9.208l.3-.308.844.877-.273.287a5.455 5.455 0 0 0 0 7.5l.273.287-.844.878zm39.415-.7.274-.279a5.46 5.46 0 0 0 .132-7.5l-.271-.291.861-.865.29.316a6.7 6.7 0 0 1-.156 9.208l-.3.3z" style="fill:#1e86ef"/>
</svg>
